<?xml version="1.0" encoding="UTF-8"?>
<!DOCTYPE svg PUBLIC "-//W3C//DTD SVG 1.1//EN" "http://www.w3.org/Graphics/SVG/1.1/DTD/svg11.dtd">
<svg xmlns="http://www.w3.org/2000/svg" version="1.1" width="500px" height="500px" style="shape-rendering:geometricPrecision; text-rendering:geometricPrecision; image-rendering:optimizeQuality; fill-rule:evenodd; clip-rule:evenodd" xmlns:xlink="http://www.w3.org/1999/xlink">
<g><path style="opacity:0.872" fill="#fefefe" d="M 238.5,241.5 C 237.402,240.603 237.402,239.77 238.5,239C 233.511,238.501 228.511,238.334 223.5,238.5C 222.041,238.433 220.708,238.766 219.5,239.5C 218.684,237.856 217.35,236.69 215.5,236C 207.333,234.475 199.166,233.309 191,232.5C 190.383,231.551 190.549,230.718 191.5,230C 201.723,228.733 209.39,223.733 214.5,215C 209.285,207.209 202.952,200.542 195.5,195C 192.439,192.965 189.105,191.799 185.5,191.5C 185.83,207.675 185.496,223.675 184.5,239.5C 181.038,238.518 177.371,238.185 173.5,238.5C 171.5,239.5 169.5,240.5 167.5,241.5C 167.783,240.711 168.283,240.044 169,239.5C 169.667,219.833 169.667,200.167 169,180.5C 168.681,177.027 167.181,174.194 164.5,172C 160.985,170.192 157.319,168.692 153.5,167.5C 153.709,166.914 154.043,166.414 154.5,166C 169.167,165.333 183.833,165.333 198.5,166C 214.545,167.265 226.045,175.098 233,189.5C 235.294,197.743 234.794,205.743 231.5,213.5C 235.773,222.379 239.773,231.379 243.5,240.5C 241.708,240.366 240.042,240.699 238.5,241.5 Z M 185.5,174.5 C 193.34,173.596 200.673,175.096 207.5,179C 212.152,182.799 214.818,187.632 215.5,193.5C 211.144,192.489 207.144,190.656 203.5,188C 197.822,186.332 192.155,184.665 186.5,183C 185.556,180.281 185.223,177.448 185.5,174.5 Z"/></g>
<g><path style="opacity:0.857" fill="#fefefe" d="M 350.5,238.5 C 343.348,238.145 336.348,238.145 329.5,238.5C 328.508,238.328 327.842,238.662 327.5,239.5C 326.427,238.749 326.26,237.749 327,236.5C 331.591,226.982 335.924,217.315 340,207.5C 340.845,204.588 342.512,203.588 345,204.5C 346.672,215.883 348.505,227.216 350.5,238.5 Z"/></g>
<g><path style="opacity:1" fill="#e2e2e2" d="M 219.5,226.5 C 220.043,226.56 220.376,226.893 220.5,227.5C 219.635,228.583 218.635,228.749 217.5,228C 218.416,227.722 219.082,227.222 219.5,226.5 Z"/></g>
<g><path style="opacity:0.355" fill="#f1f1f1" d="M 173.5,238.5 C 169.484,243.13 170.484,245.463 176.5,245.5C 176.663,247.857 176.497,250.19 176,252.5C 174.883,252.665 173.716,252.998 172.5,253.5C 171.478,253.145 170.811,252.478 170.5,251.5C 170.167,250.167 169.833,250.167 169.5,251.5C 168.833,251.5 168.5,251.833 168.5,252.5C 166.023,252.949 164.023,252.283 162.5,250.5C 164.401,247.919 165.067,245.252 164.5,242.5C 165.391,241.89 166.391,241.557 167.5,241.5C 169.5,240.5 171.5,239.5 173.5,238.5 Z"/></g>
<g><path style="opacity:0.617" fill="#ececec" d="M 173.5,238.5 C 177.371,238.185 181.038,238.518 184.5,239.5C 183.85,241.435 183.517,243.435 183.5,245.5C 181.059,244.244 178.726,244.244 176.5,245.5C 170.484,245.463 169.484,243.13 173.5,238.5 Z"/></g>
<g><path style="opacity:0.21" fill="#f4f4f4" d="M 223.5,238.5 C 227.595,240.542 231.595,242.876 235.5,245.5C 234.32,248.54 232.653,251.206 230.5,253.5C 230.5,252.5 230.5,251.5 230.5,250.5C 228.053,250.615 226.053,251.615 224.5,253.5C 222.132,252.986 220.132,251.82 218.5,250C 220.211,248.867 220.711,247.367 220,245.5C 218.052,244.891 216.218,244.224 214.5,243.5C 216.711,242.889 218.378,241.556 219.5,239.5C 220.708,238.766 222.041,238.433 223.5,238.5 Z"/></g>
<g><path style="opacity:0.664" fill="#eaeaea" d="M 223.5,238.5 C 228.511,238.334 233.511,238.501 238.5,239C 237.402,239.77 237.402,240.603 238.5,241.5C 237.659,242.926 236.659,244.26 235.5,245.5C 231.595,242.876 227.595,240.542 223.5,238.5 Z"/></g>
<g><path style="opacity:0.31" fill="#f5f5f5" d="M 329.5,238.5 C 330.114,240.283 331.28,241.616 333,242.5C 336.176,242.354 339.843,241.687 344,240.5C 344.953,242.373 346.12,242.706 347.5,241.5C 350.25,242.049 351.917,243.715 352.5,246.5C 351.833,246.167 351.167,245.833 350.5,245.5C 349.081,244.549 347.415,244.216 345.5,244.5C 346.036,247.698 345.369,250.365 343.5,252.5C 343.664,249.813 343.497,247.146 343,244.5C 339,244.5 337,246.5 337,250.5C 336.241,252.063 335.074,253.063 333.5,253.5C 333.12,252.867 332.787,252.2 332.5,251.5C 327.738,252.938 326.405,251.271 328.5,246.5C 330.338,245.811 332.005,245.478 333.5,245.5C 331.369,244.831 329.369,244.165 327.5,243.5C 327.918,242.778 328.584,242.278 329.5,242C 328.619,241.292 327.953,240.458 327.5,239.5C 327.842,238.662 328.508,238.328 329.5,238.5 Z"/></g>
<g><path style="opacity:0.408" fill="#f0f0f0" d="M 350.5,238.5 C 350.19,240.144 349.19,241.144 347.5,241.5C 346.12,242.706 344.953,242.373 344,240.5C 339.843,241.687 336.176,242.354 333,242.5C 331.28,241.616 330.114,240.283 329.5,238.5C 336.348,238.145 343.348,238.145 350.5,238.5 Z"/></g>
<g><path style="opacity:0.475" fill="#fdfdfd" d="M 164.5,242.5 C 165.067,245.252 164.401,247.919 162.5,250.5C 164.023,252.283 166.023,252.949 168.5,252.5C 167.376,253.809 165.876,254.475 164,254.5C 161.584,253.639 159.25,253.305 157,253.5C 155.977,249.683 156.477,246.183 158.5,243C 160.473,242.505 162.473,242.338 164.5,242.5 Z"/></g>
<g><path style="opacity:0.409" fill="#fdfdfd" d="M 197.5,242.5 C 198.496,242.414 199.329,242.748 200,243.5C 201.639,246.742 202.639,250.076 203,253.5C 201.32,254.603 199.82,254.27 198.5,252.5C 197.167,253.167 195.833,253.833 194.5,254.5C 193.5,254.167 192.833,253.5 192.5,252.5C 194.179,249.101 195.846,245.768 197.5,242.5 Z"/></g>
<g><path style="opacity:0.478" fill="#fdfdfd" d="M 119.5,243.5 C 124.768,242.139 127.434,244.139 127.5,249.5C 126.744,254.317 124.078,255.651 119.5,253.5C 118.174,250.136 118.174,246.803 119.5,243.5 Z"/></g>
<g><path style="opacity:0.716" fill="#fcfcfc" d="M 214.5,243.5 C 216.218,244.224 218.052,244.891 220,245.5C 220.711,247.367 220.211,248.867 218.5,250C 220.132,251.82 222.132,252.986 224.5,253.5C 222.735,254.461 220.735,254.795 218.5,254.5C 218.716,252.319 217.883,250.653 216,249.5C 215.36,251.543 215.86,253.21 217.5,254.5C 215.319,254.716 213.653,253.883 212.5,252C 213.128,249.061 213.795,246.228 214.5,243.5 Z"/></g>
<g><path style="opacity:0.372" fill="#fefefe" d="M 265.5,243.5 C 267.973,243.736 269.64,245.069 270.5,247.5C 271.833,246.167 273.167,244.833 274.5,243.5C 275.972,246.149 276.972,248.982 277.5,252C 276.667,252.833 275.833,253.667 275,254.5C 271.658,254.373 268.158,254.039 264.5,253.5C 264.253,250.061 264.586,246.728 265.5,243.5 Z"/></g>
<g><path style="opacity:0.437" fill="#fefefe" d="M 290.5,243.5 C 291.675,243.281 292.675,243.614 293.5,244.5C 294.052,246.333 294.885,248 296,249.5C 297.057,254.669 295.557,255.669 291.5,252.5C 290.252,253.04 289.085,253.707 288,254.5C 287.667,254.167 287.333,253.833 287,253.5C 287.26,249.889 288.426,246.556 290.5,243.5 Z"/></g>
<g><path style="opacity:0.5" fill="#fcfcfc" d="M 311.5,253.5 C 311.938,253.565 312.272,253.399 312.5,253C 309.597,248.178 308.597,248.345 309.5,253.5C 308.811,254.774 307.977,254.774 307,253.5C 306.333,250.5 306.333,247.5 307,244.5C 309.916,242.987 312.582,243.32 315,245.5C 315.287,247.891 315.787,250.224 316.5,252.5C 315.087,254.607 313.42,254.94 311.5,253.5 Z"/></g>
<g><path style="opacity:0.442" fill="#fdfdfd" d="M 361.5,243.5 C 362.833,243.5 364.167,243.5 365.5,243.5C 365.5,245.833 365.5,248.167 365.5,250.5C 368.694,250.176 369.694,251.342 368.5,254C 366.231,254.758 364.064,254.591 362,253.5C 361.502,250.183 361.335,246.85 361.5,243.5 Z"/></g>
<g><path style="opacity:0.447" fill="#fefefe" d="M 379.5,243.5 C 380.496,243.414 381.329,243.748 382,244.5C 382.495,246.473 382.662,248.473 382.5,250.5C 385.361,250.513 386.361,251.679 385.5,254C 382.407,255.026 380.073,254.193 378.5,251.5C 379.393,248.916 379.726,246.249 379.5,243.5 Z"/></g>
<g><path style="opacity:0.49" fill="#fdfdfd" d="M 398.5,243.5 C 404.85,242.525 407.35,245.192 406,251.5C 402.667,255.5 399.333,255.5 396,251.5C 395.018,248.225 395.851,245.559 398.5,243.5 Z M 400.5,246.5 C 402.176,247.183 402.843,248.517 402.5,250.5C 401.5,250.5 400.5,250.5 399.5,250.5C 399.433,249.041 399.766,247.708 400.5,246.5 Z"/></g>
<g><path style="opacity:0.473" fill="#fdfdfd" d="M 141.5,240.5 C 142.5,240.5 143.5,240.5 144.5,240.5C 145.093,245.272 146.093,249.939 147.5,254.5C 145.4,254.523 143.567,253.856 142,252.5C 138.308,255.413 136.974,254.413 138,249.5C 139.271,246.516 140.438,243.516 141.5,240.5 Z"/></g>
<g><path style="opacity:0.602" fill="#fdfdfd" d="M 183.5,245.5 C 183.664,248.187 183.497,250.854 183,253.5C 181.806,254.43 180.473,255.097 179,255.5C 177.003,254.34 175.169,254.34 173.5,255.5C 171.515,254.953 169.849,253.953 168.5,252.5C 168.5,251.833 168.833,251.5 169.5,251.5C 169.833,251.5 170.167,251.5 170.5,251.5C 170.811,252.478 171.478,253.145 172.5,253.5C 173.716,252.998 174.883,252.665 176,252.5C 176.497,250.19 176.663,247.857 176.5,245.5C 178.726,244.244 181.059,244.244 183.5,245.5 Z"/></g>
<g><path style="opacity:0.651" fill="#fbfbfb" d="M 238.5,241.5 C 239.707,245.786 240.707,250.12 241.5,254.5C 237.685,253.766 234.018,253.432 230.5,253.5C 232.653,251.206 234.32,248.54 235.5,245.5C 236.659,244.26 237.659,242.926 238.5,241.5 Z"/></g>
<g><path style="opacity:0.67" fill="#fdfdfd" d="M 327.5,243.5 C 329.369,244.165 331.369,244.831 333.5,245.5C 332.005,245.478 330.338,245.811 328.5,246.5C 326.405,251.271 327.738,252.938 332.5,251.5C 332.787,252.2 333.12,252.867 333.5,253.5C 328.566,255.867 325.566,254.367 324.5,249C 324.859,246.704 325.859,244.871 327.5,243.5 Z"/></g>
<g><path style="opacity:0.894" fill="#fdfdfd" d="M 350.5,245.5 C 349.167,245.5 347.833,245.5 346.5,245.5C 346.5,246.5 346.5,247.5 346.5,248.5C 351.833,248.833 351.833,249.167 346.5,249.5C 346.5,250.5 346.5,251.5 346.5,252.5C 348.5,252.5 350.5,252.5 352.5,252.5C 351.508,254.026 350.008,254.693 348,254.5C 345.992,254.693 344.492,254.026 343.5,252.5C 345.369,250.365 346.036,247.698 345.5,244.5C 347.415,244.216 349.081,244.549 350.5,245.5 Z"/></g>
<g><path style="opacity:0.869" fill="#e4e4e4" d="M 121.5,245.5 C 122.675,245.281 123.675,245.614 124.5,246.5C 122.948,247.798 121.948,247.465 121.5,245.5 Z"/></g>
<g><path style="opacity:0.824" fill="#e7e7e7" d="M 309.5,245.5 C 312.957,245.667 313.29,246.667 310.5,248.5C 309.614,247.675 309.281,246.675 309.5,245.5 Z"/></g>
<g><path style="opacity:0.827" fill="#eaeaea" d="M 159.5,245.5 C 162.957,245.667 163.29,246.667 160.5,248.5C 159.614,247.675 159.281,246.675 159.5,245.5 Z"/></g>
<g><path style="opacity:1" fill="#ececec" d="M 177.5,245.5 C 178.978,245.238 180.311,245.571 181.5,246.5C 180.68,248.111 179.346,248.778 177.5,248.5C 177.5,247.5 177.5,246.5 177.5,245.5 Z"/></g>
<g><path style="opacity:1" fill="#e9e9e9" d="M 215.5,245.5 C 220.833,246.5 220.833,247.5 215.5,248.5C 215.5,247.5 215.5,246.5 215.5,245.5 Z"/></g>
<g><path style="opacity:1" fill="#e4e4e4" d="M 235.5,247.5 C 237.337,247.639 237.67,248.306 236.5,249.5C 235.702,249.043 235.369,248.376 235.5,247.5 Z"/></g>
<g><path style="opacity:0.8" fill="#e8e8e8" d="M 197.5,246.5 C 199.332,247.14 199.665,248.14 198.5,249.5C 197.614,248.675 197.281,247.675 197.5,246.5 Z"/></g>
<g><path style="opacity:0.906" fill="#f3f3f3" d="M 290.5,247.5 C 294.31,248.754 294.31,249.754 290.5,250.5C 290.5,249.5 290.5,248.5 290.5,247.5 Z"/></g>
<g><path style="opacity:0.946" fill="#e5e5e5" d="M 121.5,249.5 C 122.5,249.5 123.5,249.5 124.5,249.5C 124.5,250.5 124.5,251.5 124.5,252.5C 123.5,252.5 122.5,252.5 121.5,252.5C 121.5,251.5 121.5,250.5 121.5,249.5 Z"/></g>
<g><path style="opacity:0.868" fill="#f2f2f2" d="M 141.5,246.5 C 144.459,249.271 144.126,250.271 140.5,249.5C 141.127,248.583 141.461,247.583 141.5,246.5 Z"/></g>
<g><path style="opacity:0.837" fill="#e6e6e6" d="M 350.5,245.5 C 351.167,245.833 351.833,246.167 352.5,246.5C 352.065,248.703 352.065,250.703 352.5,252.5C 350.5,252.5 348.5,252.5 346.5,252.5C 346.5,251.5 346.5,250.5 346.5,249.5C 351.833,249.167 351.833,248.833 346.5,248.5C 346.5,247.5 346.5,246.5 346.5,245.5C 347.833,245.5 349.167,245.5 350.5,245.5 Z"/></g>
<g><path style="opacity:0.692" fill="#efefef" d="M 273.5,248.5 C 274.782,249.708 274.782,251.042 273.5,252.5C 272.708,251.3 272.708,249.967 273.5,248.5 Z"/></g>
<g><path style="opacity:1" fill="#eaeaea" d="M 177.5,249.5 C 178.978,249.238 180.311,249.571 181.5,250.5C 180.68,252.111 179.346,252.778 177.5,252.5C 177.5,251.5 177.5,250.5 177.5,249.5 Z"/></g>
<g><path style="opacity:0.477" fill="#ececec" d="M 218.5,254.5 C 218.167,254.5 217.833,254.5 217.5,254.5C 215.86,253.21 215.36,251.543 216,249.5C 217.883,250.653 218.716,252.319 218.5,254.5 Z"/></g>
<g><path style="opacity:0.452" fill="#f0f0f0" d="M 311.5,253.5 C 310.833,253.5 310.167,253.5 309.5,253.5C 308.597,248.345 309.597,248.178 312.5,253C 312.272,253.399 311.938,253.565 311.5,253.5 Z"/></g>
<g><path style="opacity:0.84" fill="#fefefe" d="M 173.5,255.5 C 177.08,257.596 180.913,259.262 185,260.5C 185.5,276.163 185.667,291.83 185.5,307.5C 193.513,308.768 201.513,308.768 209.5,307.5C 211.8,291.622 214.133,275.789 216.5,260C 219.76,259.216 222.927,259.383 226,260.5C 225.8,273.404 224.633,286.237 222.5,299C 222.281,300.971 223.115,302.138 225,302.5C 237.17,295.358 242.504,284.691 241,270.5C 239.581,267.026 238.248,263.693 237,260.5C 244.109,259.188 251.276,259.188 258.5,260.5C 259.105,266.196 259.938,271.863 261,277.5C 269.07,294.543 277.237,311.543 285.5,328.5C 296.398,306.041 306.731,283.374 316.5,260.5C 320.093,257.975 323.426,258.142 326.5,261C 311.545,293.278 297.545,325.945 284.5,359C 283.833,359.667 283.167,359.667 282.5,359C 272.644,338.121 262.644,317.288 252.5,296.5C 244.208,306.147 233.875,312.48 221.5,315.5C 220.39,326.483 219.89,337.483 220,348.5C 222.606,351.891 226.106,353.891 230.5,354.5C 230.291,355.086 229.957,355.586 229.5,356C 215.592,356.823 201.758,356.656 188,355.5C 187.568,354.4 188.068,353.733 189.5,353.5C 195.83,353.007 200.997,350.34 205,345.5C 206.762,336.552 208.262,327.552 209.5,318.5C 198.933,318.171 188.266,317.337 177.5,316C 151.736,307.979 139.736,290.479 141.5,263.5C 142.906,262.332 144.072,262.665 145,264.5C 146.136,277.595 151.303,288.761 160.5,298C 162.976,300.571 165.976,302.071 169.5,302.5C 169.333,288.496 169.5,274.496 170,260.5C 171.669,259.154 172.836,257.487 173.5,255.5 Z"/></g>
<g><path style="opacity:0.872" fill="#fefefe" d="M 339.5,258.5 C 344.477,258.392 349.31,259.059 354,260.5C 358.147,287.529 362.48,314.529 367,341.5C 371.502,362.984 383.669,378.151 403.5,387C 409.469,388.103 415.469,388.936 421.5,389.5C 421.67,390.822 421.337,391.989 420.5,393C 390.848,397.259 369.348,386.093 356,359.5C 354.333,355.167 352.667,350.833 351,346.5C 346.424,318.222 342.257,289.889 338.5,261.5C 338.685,260.416 339.018,259.416 339.5,258.5 Z"/></g>
</svg>
